<?xml version="1.0" encoding="UTF-8" standalone="no"?>
<svg
   xmlns:dc="http://purl.org/dc/elements/1.1/"
   xmlns:cc="http://creativecommons.org/ns#"
   xmlns:rdf="http://www.w3.org/1999/02/22-rdf-syntax-ns#"
   xmlns:svg="http://www.w3.org/2000/svg"
   xmlns="http://www.w3.org/2000/svg"
   xmlns:sodipodi="http://sodipodi.sourceforge.net/DTD/sodipodi-0.dtd"
   xmlns:inkscape="http://www.inkscape.org/namespaces/inkscape"
   inkscape:version="1.0rc1 (09960d6, 2020-04-09)"
   height="100"
   width="100"
   sodipodi:docname="Noun_project_list_icon_1380018_cc.svg"
   id="svg24"
   version="1.1"
   y="0px"
   x="0px"
   viewBox="0 0 100 100"
   data-name="Layer 1">
  <metadata
     id="metadata30">
    <rdf:RDF>
      <cc:Work
         rdf:about="">
        <dc:format>image/svg+xml</dc:format>
        <dc:type
           rdf:resource="http://purl.org/dc/dcmitype/StillImage" />
        <dc:title>05</dc:title>
      </cc:Work>
    </rdf:RDF>
  </metadata>
  <defs
     id="defs28" />
  <sodipodi:namedview
     inkscape:document-rotation="0"
     inkscape:current-layer="svg24"
     inkscape:window-maximized="1"
     inkscape:window-y="0"
     inkscape:window-x="0"
     inkscape:cy="54.475995"
     inkscape:cx="48.662606"
     inkscape:zoom="6.3748759"
     fit-margin-bottom="10"
     fit-margin-right="10"
     fit-margin-left="10"
     fit-margin-top="10"
     showgrid="false"
     id="namedview26"
     inkscape:window-height="1048"
     inkscape:window-width="1920"
     inkscape:pageshadow="2"
     inkscape:pageopacity="0"
     guidetolerance="10"
     gridtolerance="10"
     objecttolerance="10"
     borderopacity="1"
     bordercolor="#666666"
     pagecolor="#ffffff" />
  <title
     id="title2">05</title>
  <g
     transform="matrix(1.2833829,0,0,1.2833829,-13.707751,-14.032242)"
     id="g18"
     data-name="Group">
    <path
       inkscape:connector-curvature="0"
       id="path4"
       d="m 74.5,12.25 h -49 a 11,11 0 0 0 -11,11 v 53.5 a 11,11 0 0 0 11,11 h 49 a 11,11 0 0 0 11,-11 v -53.5 a 11,11 0 0 0 -11,-11 z m 9,64.5 a 9,9 0 0 1 -9,9 h -49 a 9,9 0 0 1 -9,-9 v -53.5 a 9,9 0 0 1 9,-9 h 49 a 9,9 0 0 1 9,9 z"
       data-name="Compound Path" />
    <path
       inkscape:connector-curvature="0"
       id="path6"
       d="M 33,43.66 A 6.34,6.34 0 1 0 39.38,50 6.35,6.35 0 0 0 33,43.66 Z m 0,10.68 A 4.34,4.34 0 1 1 37.38,50 4.34,4.34 0 0 1 33,54.34 Z"
       data-name="Compound Path" />
    <path
       inkscape:connector-curvature="0"
       id="path8"
       d="m 72.29,49 h -22 a 1,1 0 0 0 0,2 h 22 a 1,1 0 0 0 0,-2 z"
       data-name="Path" />
    <path
       inkscape:connector-curvature="0"
       id="path10"
       d="M 33,23.66 A 6.34,6.34 0 1 0 39.38,30 6.35,6.35 0 0 0 33,23.66 Z m 0,10.68 A 4.34,4.34 0 1 1 37.38,30 4.34,4.34 0 0 1 33,34.34 Z"
       data-name="Compound Path" />
    <path
       inkscape:connector-curvature="0"
       id="path12"
       d="m 72.29,29 h -22 a 1,1 0 0 0 0,2 h 22 a 1,1 0 0 0 0,-2 z"
       data-name="Path" />
    <path
       inkscape:connector-curvature="0"
       id="path14"
       d="M 33,63.66 A 6.34,6.34 0 1 0 39.38,70 6.35,6.35 0 0 0 33,63.66 Z m 0,10.68 A 4.34,4.34 0 1 1 37.38,70 4.34,4.34 0 0 1 33,74.34 Z"
       data-name="Compound Path" />
    <path
       inkscape:connector-curvature="0"
       id="path16"
       d="m 72.29,69 h -22 a 1,1 0 1 0 0,2 h 22 a 1,1 0 0 0 0,-2 z"
       data-name="Path" />
  </g>
</svg>
